<svg width="1024" height="1024" viewBox="0 0 1024 1024" fill="none" xmlns="http://www.w3.org/2000/svg">
<!-- Background -->
<rect width="1024" height="1024" rx="228" fill="#0D0F2B"/>
<!-- Outer flame -->
<path fill-rule="evenodd" clip-rule="evenodd" d="M362.948 131.08C449.17 131.08 554.352 161.47 637.997 228.329C721.674 295.213 783.775 398.582 783.775 544.428C783.775 632.127 755.082 705.155 704.791 756.263C654.499 807.371 582.687 836.478 496.604 836.478C419.508 836.478 355.357 814.309 310.465 775.381C265.559 736.441 240 680.795 240 614.02C240 555.139 254.034 515.003 268.04 480.517C282.057 446.004 295.934 417.359 295.934 381.18C295.934 374.067 295.367 365.565 294.798 357.757C294.231 349.981 293.657 342.854 293.657 338.579C293.657 331.055 296 324.701 300.142 320.218C304.289 315.728 310.174 313.189 317.096 313.189C346.871 313.189 379.836 337.809 398.094 374.688C399.804 367.348 400.321 360.429 400.321 353.223C399.675 289.544 361.201 234.828 322.508 188.656C315.571 180.723 311.868 172.048 311.868 163.624C311.868 152.841 316.952 144.644 325.926 139.192C334.844 133.775 347.571 131.08 362.948 131.08Z" fill="url(#flame_outer)"/>
<!-- Middle flame -->
<path fill-rule="evenodd" clip-rule="evenodd" d="M372.408 177.134C417.074 224.965 444.118 290.417 444.118 358.741C444.118 379.513 439.38 406.298 431.332 427.91C427.309 438.714 422.436 448.285 416.869 455.175C411.316 462.048 404.942 466.405 397.916 466.405C395.241 466.405 392.792 465.507 390.844 463.649C388.914 461.81 387.542 459.094 386.861 455.553C378.408 419.549 364.842 393.955 346.246 377.18C346.559 380.294 346.56 383.432 346.56 386.708C346.56 429.226 332.072 459.578 317.696 492.472C303.323 525.359 289 560.897 289 614.02C289 666.245 310.252 709.943 347.335 740.604C384.434 771.277 437.443 788.95 501.003 788.95C571.163 788.95 629.67 764.165 670.64 721.052C711.614 677.934 735.119 616.407 735.119 542.802C735.119 342.508 592.916 191.11 372.408 177.134Z" fill="url(#flame_middle)"/>
<!-- Inner flame -->
<path d="M507.845 454.543C508.931 453.674 510.41 453.512 511.969 453.954L512.281 454.051L512.337 454.069L512.391 454.094C583.985 487.766 621.255 559.029 621.255 622.8C621.255 655.179 611.771 685.751 592.479 708.245C573.168 730.761 544.101 745.098 505.136 745.098C474.53 745.098 448.991 735.848 431.092 719.636C413.184 703.415 403 680.293 403 652.718C403 623.825 413.274 604.202 424.133 587.261C429.578 578.765 435.097 571.05 439.624 563.095C444.132 555.173 447.586 547.125 448.862 538.108L448.868 538.07L448.876 538.032C449.231 536.436 450.002 535.077 451.288 534.525C452.551 533.984 453.913 534.379 455.138 535.339L455.381 535.539L455.389 535.545L455.396 535.552C470.069 548.63 479.761 564.48 487.785 582.73C495.756 571.172 501.699 553.72 505.043 532.726C508.524 510.87 509.173 485.268 506.417 458.68C506.232 456.993 506.687 455.469 507.845 454.543Z" fill="url(#flame_inner)"/>
<defs>
<linearGradient id="flame_outer" x1="511.888" y1="131.08" x2="511.888" y2="836.478" gradientUnits="userSpaceOnUse">
<stop stop-color="#FF991F"/>
<stop offset="0.721154" stop-color="#8C0D14"/>
</linearGradient>
<linearGradient id="flame_middle" x1="512.06" y1="177.134" x2="512.06" y2="788.95" gradientUnits="userSpaceOnUse">
<stop stop-color="#FFEB80"/>
<stop offset="0.822115" stop-color="#F2330D"/>
</linearGradient>
<linearGradient id="flame_inner" x1="512.127" y1="453.716" x2="512.127" y2="745.098" gradientUnits="userSpaceOnUse">
<stop stop-color="#FFFFD9"/>
<stop offset="0.802885" stop-color="#FFC033"/>
</linearGradient>
</defs>
</svg>
